<svg width="93" height="22" viewBox="0 0 93 22" fill="none" xmlns="http://www.w3.org/2000/svg">
<path d="M0.462 14.382L5.302 8.794H10.648L5.808 14.382H0.462ZM0.462 17V14.382L3.036 13.568H10.516V17H0.462ZM0.836 9.608V6.176H10.648V8.794L8.074 9.608H0.836ZM12.2268 17V6.176H16.5388V17H12.2268ZM14.3828 5.164C13.7522 5.164 13.2242 4.95133 12.7988 4.526C12.3882 4.086 12.1828 3.55067 12.1828 2.92C12.1828 2.28933 12.3882 1.76133 12.7988 1.336C13.2242 0.895999 13.7522 0.675999 14.3828 0.675999C15.0282 0.675999 15.5562 0.895999 15.9668 1.336C16.3775 1.76133 16.5828 2.28933 16.5828 2.92C16.5828 3.55067 16.3775 4.086 15.9668 4.526C15.5562 4.95133 15.0282 5.164 14.3828 5.164ZM25.2527 17.22C24.6074 17.22 23.9987 17.1173 23.4267 16.912C22.8547 16.692 22.3707 16.3913 21.9747 16.01C21.5787 15.6287 21.3221 15.1887 21.2047 14.69V8.706C21.3221 8.20733 21.5787 7.75267 21.9747 7.342C22.3707 6.91667 22.8547 6.57933 23.4267 6.33C23.9987 6.08067 24.6074 5.956 25.2527 5.956C26.3234 5.956 27.2547 6.198 28.0467 6.682C28.8534 7.15133 29.4767 7.81133 29.9167 8.662C30.3714 9.51267 30.5987 10.488 30.5987 11.588C30.5987 12.688 30.3714 13.6633 29.9167 14.514C29.4767 15.35 28.8534 16.01 28.0467 16.494C27.2547 16.978 26.3234 17.22 25.2527 17.22ZM24.4387 13.436C24.7907 13.436 25.1061 13.3553 25.3847 13.194C25.6634 13.0327 25.8761 12.8127 26.0227 12.534C26.1841 12.2553 26.2647 11.94 26.2647 11.588C26.2647 11.2213 26.1841 10.906 26.0227 10.642C25.8761 10.3633 25.6634 10.1433 25.3847 9.982C25.1207 9.82067 24.8127 9.74 24.4607 9.74C24.1087 9.74 23.7934 9.82067 23.5147 9.982C23.2507 10.1287 23.0381 10.3413 22.8767 10.62C22.7301 10.8987 22.6567 11.2213 22.6567 11.588C22.6567 11.94 22.7301 12.2553 22.8767 12.534C23.0234 12.8127 23.2287 13.0327 23.4927 13.194C23.7714 13.3553 24.0867 13.436 24.4387 13.436ZM18.5867 21.62V6.176H22.8987V8.838L22.1947 11.456L22.7887 14.096V21.62H18.5867ZM31.0987 14.382L35.9387 8.794H41.2847L36.4447 14.382H31.0987ZM31.0987 17V14.382L33.6727 13.568H41.1527V17H31.0987ZM31.4727 9.608V6.176H41.2847V8.794L38.7107 9.608H31.4727ZM48.0408 17.264C46.8528 17.264 45.7894 17.022 44.8508 16.538C43.9268 16.0393 43.1934 15.3573 42.6508 14.492C42.1228 13.6267 41.8588 12.6513 41.8588 11.566C41.8588 10.4807 42.1228 9.51267 42.6508 8.662C43.1788 7.81133 43.9048 7.144 44.8288 6.66C45.7674 6.16133 46.8308 5.912 48.0188 5.912C49.2068 5.912 50.2628 6.16133 51.1868 6.66C52.1108 7.144 52.8368 7.81133 53.3648 8.662C53.9074 9.51267 54.1788 10.4807 54.1788 11.566C54.1788 12.6513 53.9148 13.6267 53.3868 14.492C52.8588 15.3573 52.1328 16.0393 51.2088 16.538C50.2848 17.022 49.2288 17.264 48.0408 17.264ZM48.0188 13.48C48.3854 13.48 48.7008 13.4067 48.9648 13.26C49.2434 13.0987 49.4561 12.8787 49.6028 12.6C49.7494 12.3067 49.8228 11.9693 49.8228 11.588C49.8228 11.2067 49.7421 10.8767 49.5808 10.598C49.4341 10.3047 49.2288 10.0847 48.9648 9.938C48.7008 9.77667 48.3854 9.696 48.0188 9.696C47.6668 9.696 47.3514 9.77667 47.0728 9.938C46.8088 10.0993 46.5961 10.3267 46.4348 10.62C46.2881 10.8987 46.2148 11.2287 46.2148 11.61C46.2148 11.9767 46.2881 12.3067 46.4348 12.6C46.5961 12.8787 46.8088 13.0987 47.0728 13.26C47.3514 13.4067 47.6668 13.48 48.0188 13.48ZM60.9744 17.264C59.7864 17.264 58.723 17.022 57.7844 16.538C56.8604 16.0393 56.127 15.3573 55.5844 14.492C55.0564 13.6267 54.7924 12.6513 54.7924 11.566C54.7924 10.4807 55.0564 9.51267 55.5844 8.662C56.1124 7.81133 56.8384 7.144 57.7624 6.66C58.701 6.16133 59.7644 5.912 60.9524 5.912C62.1404 5.912 63.1964 6.16133 64.1204 6.66C65.0444 7.144 65.7704 7.81133 66.2984 8.662C66.841 9.51267 67.1124 10.4807 67.1124 11.566C67.1124 12.6513 66.8484 13.6267 66.3204 14.492C65.7924 15.3573 65.0664 16.0393 64.1424 16.538C63.2184 17.022 62.1624 17.264 60.9744 17.264ZM60.9524 13.48C61.319 13.48 61.6344 13.4067 61.8984 13.26C62.177 13.0987 62.3897 12.8787 62.5364 12.6C62.683 12.3067 62.7564 11.9693 62.7564 11.588C62.7564 11.2067 62.6757 10.8767 62.5144 10.598C62.3677 10.3047 62.1624 10.0847 61.8984 9.938C61.6344 9.77667 61.319 9.696 60.9524 9.696C60.6004 9.696 60.285 9.77667 60.0064 9.938C59.7424 10.0993 59.5297 10.3267 59.3684 10.62C59.2217 10.8987 59.1484 11.2287 59.1484 11.61C59.1484 11.9767 59.2217 12.3067 59.3684 12.6C59.5297 12.8787 59.7424 13.0987 60.0064 13.26C60.285 13.4067 60.6004 13.48 60.9524 13.48ZM75.338 17V10.928C75.338 10.5027 75.2133 10.18 74.964 9.96C74.7293 9.72533 74.4286 9.608 74.062 9.608C73.8126 9.608 73.5853 9.65933 73.38 9.762C73.1893 9.86467 73.0353 10.0187 72.918 10.224C72.8153 10.4147 72.764 10.6493 72.764 10.928L71.092 10.18C71.092 9.3 71.2826 8.54467 71.664 7.914C72.06 7.28333 72.5953 6.79933 73.27 6.462C73.9593 6.12467 74.7366 5.956 75.602 5.956C76.3793 5.956 77.0686 6.132 77.67 6.484C78.286 6.82133 78.77 7.29067 79.122 7.892C79.474 8.47867 79.65 9.16067 79.65 9.938V17H75.338ZM68.452 17V6.176H72.764V17H68.452ZM86.135 21.972C84.9177 21.972 83.8397 21.7667 82.901 21.356C81.9623 20.96 81.2363 20.3953 80.723 19.662L83.275 17.132C83.6123 17.4987 83.9863 17.7847 84.397 17.99C84.8077 18.21 85.3063 18.32 85.893 18.32C86.597 18.32 87.147 18.1513 87.543 17.814C87.9537 17.4767 88.159 16.9853 88.159 16.34V13.48L88.863 11.148L88.269 8.838V6.176H92.471V16.164C92.471 17.352 92.1923 18.3787 91.635 19.244C91.0777 20.1093 90.3223 20.7767 89.369 21.246C88.4157 21.73 87.3377 21.972 86.135 21.972ZM85.937 16.56C84.925 16.56 84.0303 16.3253 83.253 15.856C82.4757 15.3867 81.867 14.7487 81.427 13.942C80.987 13.1353 80.767 12.2407 80.767 11.258C80.767 10.2607 80.987 9.366 81.427 8.574C81.867 7.76733 82.4757 7.12933 83.253 6.66C84.0303 6.19067 84.925 5.956 85.937 5.956C86.5677 5.956 87.147 6.066 87.675 6.286C88.2177 6.49133 88.665 6.78467 89.017 7.166C89.3837 7.54733 89.6183 7.98733 89.721 8.486V14.03C89.6183 14.5287 89.3837 14.9687 89.017 15.35C88.665 15.7313 88.2177 16.032 87.675 16.252C87.147 16.4573 86.5677 16.56 85.937 16.56ZM86.729 12.886C87.081 12.886 87.3817 12.8053 87.631 12.644C87.8803 12.4827 88.071 12.2773 88.203 12.028C88.335 11.7787 88.401 11.5147 88.401 11.236C88.401 10.9573 88.335 10.6933 88.203 10.444C88.071 10.1947 87.8803 9.98933 87.631 9.828C87.3963 9.66667 87.103 9.586 86.751 9.586C86.4137 9.586 86.1203 9.66667 85.871 9.828C85.6217 9.98933 85.431 10.202 85.299 10.466C85.167 10.7153 85.101 10.972 85.101 11.236C85.101 11.4853 85.167 11.742 85.299 12.006C85.431 12.2553 85.6143 12.468 85.849 12.644C86.0983 12.8053 86.3917 12.886 86.729 12.886Z" fill="white"/>
</svg>
