<svg width="65" height="17" viewBox="0 0 65 17" fill="none" xmlns="http://www.w3.org/2000/svg">
<path d="M0.244289 16V0.336H4.64429V16H0.244289ZM3.83029 16V12.26H11.1563V16H3.83029ZM20.041 16.308C18.809 16.308 17.6724 16.1027 16.631 15.692C15.6044 15.2813 14.7024 14.7093 13.925 13.976C13.1624 13.2427 12.5684 12.3773 12.143 11.38C11.7177 10.3827 11.505 9.30467 11.505 8.146C11.505 6.97267 11.7104 5.89467 12.121 4.912C12.5464 3.92933 13.1404 3.07133 13.903 2.338C14.6657 1.60467 15.5604 1.04 16.587 0.644C17.6284 0.233333 18.765 0.0279998 19.997 0.0279998C21.229 0.0279998 22.3584 0.233333 23.385 0.644C24.4264 1.04 25.3284 1.60467 26.091 2.338C26.8537 3.07133 27.4404 3.93667 27.851 4.934C28.2764 5.91667 28.489 6.99467 28.489 8.168C28.489 9.32667 28.2764 10.4047 27.851 11.402C27.4404 12.3847 26.8537 13.25 26.091 13.998C25.3284 14.7313 24.4337 15.3033 23.407 15.714C22.3804 16.11 21.2584 16.308 20.041 16.308ZM19.997 12.436C20.8184 12.436 21.5297 12.26 22.131 11.908C22.7324 11.556 23.1944 11.0573 23.517 10.412C23.8397 9.76667 24.001 9.01133 24.001 8.146C24.001 7.50067 23.9057 6.92133 23.715 6.408C23.539 5.88 23.275 5.43267 22.923 5.066C22.571 4.68467 22.1457 4.39867 21.647 4.208C21.163 4.00267 20.613 3.9 19.997 3.9C19.1757 3.9 18.4644 4.076 17.863 4.428C17.2617 4.76533 16.7997 5.25667 16.477 5.902C16.1544 6.53267 15.993 7.28067 15.993 8.146C15.993 8.806 16.081 9.4 16.257 9.928C16.4477 10.456 16.719 10.9107 17.071 11.292C17.423 11.6587 17.841 11.9447 18.325 12.15C18.8237 12.3407 19.381 12.436 19.997 12.436ZM38.2807 16.264C37.0634 16.264 35.9341 16.066 34.8927 15.67C33.8661 15.2593 32.9641 14.6873 32.1867 13.954C31.4241 13.2207 30.8301 12.3627 30.4047 11.38C29.9794 10.3973 29.7667 9.32667 29.7667 8.168C29.7667 6.99467 29.9867 5.91667 30.4267 4.934C30.8814 3.95133 31.5047 3.10067 32.2967 2.382C33.1034 1.64867 34.0347 1.084 35.0907 0.687999C36.1467 0.277333 37.2761 0.0719992 38.4787 0.0719992C39.9307 0.0719992 41.2287 0.321332 42.3727 0.819999C43.5314 1.31867 44.4701 1.99333 45.1887 2.844L42.2187 5.814C41.6761 5.18333 41.1114 4.714 40.5247 4.406C39.9381 4.098 39.2341 3.944 38.4127 3.944C37.6354 3.944 36.9314 4.12 36.3007 4.472C35.6701 4.80933 35.1641 5.29333 34.7827 5.924C34.4161 6.55467 34.2327 7.29533 34.2327 8.146C34.2327 8.99667 34.4014 9.74467 34.7387 10.39C35.0907 11.0207 35.5747 11.512 36.1907 11.864C36.8067 12.216 37.5254 12.392 38.3467 12.392C39.1387 12.392 39.8061 12.238 40.3487 11.93C40.8914 11.622 41.3021 11.182 41.5807 10.61C41.8741 10.038 42.0207 9.36333 42.0207 8.586L45.0347 10.5L37.7527 10.28V6.76H46.4427V7.42C46.4427 9.29733 46.0981 10.896 45.4087 12.216C44.7341 13.536 43.7807 14.5407 42.5487 15.23C41.3314 15.9193 39.9087 16.264 38.2807 16.264ZM56.0918 16.308C54.8598 16.308 53.7231 16.1027 52.6818 15.692C51.6551 15.2813 50.7531 14.7093 49.9758 13.976C49.2131 13.2427 48.6191 12.3773 48.1938 11.38C47.7685 10.3827 47.5558 9.30467 47.5558 8.146C47.5558 6.97267 47.7611 5.89467 48.1718 4.912C48.5971 3.92933 49.1911 3.07133 49.9538 2.338C50.7165 1.60467 51.6111 1.04 52.6378 0.644C53.6791 0.233333 54.8158 0.0279998 56.0478 0.0279998C57.2798 0.0279998 58.4091 0.233333 59.4358 0.644C60.4771 1.04 61.3791 1.60467 62.1418 2.338C62.9045 3.07133 63.4911 3.93667 63.9018 4.934C64.3271 5.91667 64.5398 6.99467 64.5398 8.168C64.5398 9.32667 64.3271 10.4047 63.9018 11.402C63.4911 12.3847 62.9045 13.25 62.1418 13.998C61.3791 14.7313 60.4845 15.3033 59.4578 15.714C58.4311 16.11 57.3091 16.308 56.0918 16.308ZM56.0478 12.436C56.8691 12.436 57.5805 12.26 58.1818 11.908C58.7831 11.556 59.2451 11.0573 59.5678 10.412C59.8905 9.76667 60.0518 9.01133 60.0518 8.146C60.0518 7.50067 59.9565 6.92133 59.7658 6.408C59.5898 5.88 59.3258 5.43267 58.9738 5.066C58.6218 4.68467 58.1965 4.39867 57.6978 4.208C57.2138 4.00267 56.6638 3.9 56.0478 3.9C55.2265 3.9 54.5151 4.076 53.9138 4.428C53.3125 4.76533 52.8505 5.25667 52.5278 5.902C52.2051 6.53267 52.0438 7.28067 52.0438 8.146C52.0438 8.806 52.1318 9.4 52.3078 9.928C52.4985 10.456 52.7698 10.9107 53.1218 11.292C53.4738 11.6587 53.8918 11.9447 54.3758 12.15C54.8745 12.3407 55.4318 12.436 56.0478 12.436Z" fill="#3772F7"/>
</svg>
