<svg width="30" height="30" viewBox="0 0 30 30" fill="none" xmlns="http://www.w3.org/2000/svg">
<path d="M13.236 5.96401C13.4045 6.13276 13.4992 6.36151 13.4992 6.60001C13.4992 6.83851 13.4045 7.06726 13.236 7.23601L11.772 8.70001H16.2C17.6833 8.70001 19.1334 9.13988 20.3667 9.96399C21.6001 10.7881 22.5614 11.9594 23.129 13.3299C23.6967 14.7003 23.8452 16.2083 23.5558 17.6632C23.2665 19.118 22.5521 20.4544 21.5033 21.5033C20.4544 22.5522 19.118 23.2665 17.6631 23.5559C16.2083 23.8453 14.7003 23.6968 13.3298 23.1291C11.9594 22.5615 10.788 21.6002 9.96393 20.3668C9.13982 19.1334 8.69995 17.6834 8.69995 16.2C8.69995 15.9613 8.79477 15.7324 8.96355 15.5636C9.13234 15.3948 9.36126 15.3 9.59995 15.3C9.83865 15.3 10.0676 15.3948 10.2363 15.5636C10.4051 15.7324 10.5 15.9613 10.5 16.2C10.5 17.3274 10.8343 18.4294 11.4606 19.3668C12.0869 20.3041 12.9771 21.0347 14.0187 21.4661C15.0602 21.8975 16.2063 22.0104 17.312 21.7905C18.4177 21.5706 19.4333 21.0277 20.2305 20.2305C21.0276 19.4334 21.5705 18.4177 21.7904 17.312C22.0104 16.2063 21.8975 15.0603 21.4661 14.0187C21.0346 12.9772 20.3041 12.087 19.3667 11.4606C18.4293 10.8343 17.3273 10.5 16.2 10.5H11.772L13.236 11.964C13.3949 12.1346 13.4815 12.3603 13.4774 12.5934C13.4732 12.8266 13.3788 13.0491 13.2139 13.214C13.049 13.3789 12.8265 13.4733 12.5934 13.4774C12.3602 13.4815 12.1346 13.395 11.964 13.236L8.96395 10.236C8.79541 10.0673 8.70074 9.83851 8.70074 9.60001C8.70074 9.36151 8.79541 9.13276 8.96395 8.96401L11.964 5.96401C12.1327 5.79547 12.3615 5.70081 12.6 5.70081C12.8385 5.70081 13.0672 5.79547 13.236 5.96401Z" fill="#303441"/>
<rect x="0.5" y="0.5" width="29" height="29" rx="14.5" stroke="#B3B3B3"/>
</svg>
