<svg width="18" height="18" viewBox="0 0 18 18" fill="none" xmlns="http://www.w3.org/2000/svg">
<g clip-path="url(#clip0_513_3260)">
<path d="M16.5429 17.9571C16.9334 18.3476 17.5666 18.3476 17.9571 17.9571C18.3476 17.5666 18.3476 16.9334 17.9571 16.5429L16.5429 17.9571ZM13.3382 7.54412C13.3382 10.7441 10.7441 13.3382 7.54412 13.3382V15.3382C11.8487 15.3382 15.3382 11.8487 15.3382 7.54412H13.3382ZM7.54412 13.3382C4.34411 13.3382 1.75 10.7441 1.75 7.54412H-0.25C-0.25 11.8487 3.23955 15.3382 7.54412 15.3382V13.3382ZM1.75 7.54412C1.75 4.34411 4.34411 1.75 7.54412 1.75V-0.25C3.23955 -0.25 -0.25 3.23955 -0.25 7.54412H1.75ZM7.54412 1.75C10.7441 1.75 13.3382 4.34411 13.3382 7.54412H15.3382C15.3382 3.23955 11.8487 -0.25 7.54412 -0.25V1.75ZM11.69 13.1042L16.5429 17.9571L17.9571 16.5429L13.1042 11.69L11.69 13.1042Z" fill="#303441"/>
</g>
<defs>
<clipPath id="clip0_513_3260">
<rect width="18" height="18" fill="white"/>
</clipPath>
</defs>
</svg>
