<svg width="48" height="48" viewBox="0 0 48 48" fill="none" xmlns="http://www.w3.org/2000/svg">
<path d="M8.5 22.5C7.23333 22.5 6.16667 22.0667 5.3 21.2C4.43333 20.3333 4 19.2667 4 18C4 16.7333 4.43333 15.6667 5.3 14.8C6.16667 13.9333 7.23333 13.5 8.5 13.5C9.76667 13.5 10.8333 13.9333 11.7 14.8C12.5667 15.6667 13 16.7333 13 18C13 19.2667 12.5667 20.3333 11.7 21.2C10.8333 22.0667 9.76667 22.5 8.5 22.5ZM17.75 14C16.4833 14 15.4167 13.5667 14.55 12.7C13.6833 11.8333 13.25 10.7667 13.25 9.5C13.25 8.23333 13.6833 7.16667 14.55 6.3C15.4167 5.43333 16.4833 5 17.75 5C19.0167 5 20.0833 5.43333 20.95 6.3C21.8167 7.16667 22.25 8.23333 22.25 9.5C22.25 10.7667 21.8167 11.8333 20.95 12.7C20.0833 13.5667 19.0167 14 17.75 14ZM30.25 14C28.9833 14 27.9167 13.5667 27.05 12.7C26.1833 11.8333 25.75 10.7667 25.75 9.5C25.75 8.23333 26.1833 7.16667 27.05 6.3C27.9167 5.43333 28.9833 5 30.25 5C31.5167 5 32.5833 5.43333 33.45 6.3C34.3167 7.16667 34.75 8.23333 34.75 9.5C34.75 10.7667 34.3167 11.8333 33.45 12.7C32.5833 13.5667 31.5167 14 30.25 14ZM39.5 22.5C38.2333 22.5 37.1667 22.0667 36.3 21.2C35.4333 20.3333 35 19.2667 35 18C35 16.7333 35.4333 15.6667 36.3 14.8C37.1667 13.9333 38.2333 13.5 39.5 13.5C40.7667 13.5 41.8333 13.9333 42.7 14.8C43.5667 15.6667 44 16.7333 44 18C44 19.2667 43.5667 20.3333 42.7 21.2C41.8333 22.0667 40.7667 22.5 39.5 22.5ZM13.3 43C11.9 43 10.75 42.475 9.85 41.425C8.95 40.375 8.5 39.1333 8.5 37.7C8.5 36.3 8.925 35.0583 9.775 33.975C10.625 32.8917 11.5333 31.85 12.5 30.85C13.2333 30.1167 13.9167 29.3417 14.55 28.525C15.1833 27.7083 15.7833 26.8667 16.35 26C17.3167 24.5333 18.4 23.1667 19.6 21.9C20.8 20.6333 22.2667 20 24 20C25.7333 20 27.2083 20.6333 28.425 21.9C29.6417 23.1667 30.7333 24.55 31.7 26.05C32.2667 26.9167 32.8583 27.75 33.475 28.55C34.0917 29.35 34.7667 30.1167 35.5 30.85C36.4667 31.85 37.375 32.8917 38.225 33.975C39.075 35.0583 39.5 36.3 39.5 37.7C39.5 39.1333 39.05 40.375 38.15 41.425C37.25 42.475 36.1 43 34.7 43C32.9 43 31.1167 42.85 29.35 42.55C27.5833 42.25 25.8 42.1 24 42.1C22.2 42.1 20.4167 42.25 18.65 42.55C16.8833 42.85 15.1 43 13.3 43Z" fill="#303441"/>
</svg>
