<svg width="36" height="36" viewBox="0 0 36 36" fill="none" xmlns="http://www.w3.org/2000/svg">
									<path
										d="M3 36C2.16667 36 1.45833 35.7083 0.875 35.125C0.291667 34.5417 0 33.8333 0 33V11.25C0 10.4167 0.291667 9.70833 0.875 9.125C1.45833 8.54167 2.16667 8.25 3 8.25H8.25V3C8.25 2.16667 8.54167 1.45833 9.125 0.875C9.70833 0.291667 10.4167 0 11.25 0H24.75C25.5833 0 26.2917 0.291667 26.875 0.875C27.4583 1.45833 27.75 2.16667 27.75 3V16.5H33C33.8333 16.5 34.5417 16.7917 35.125 17.375C35.7083 17.9583 36 18.6667 36 19.5V33C36 33.8333 35.7083 34.5417 35.125 35.125C34.5417 35.7083 33.8333 36 33 36H20.65V27.75H15.35V36H3ZM3 33H8.25V27.75H3V33ZM3 24.75H8.25V19.5H3V24.75ZM3 16.5H8.25V11.25H3V16.5ZM11.25 24.75H16.5V19.5H11.25V24.75ZM11.25 16.5H16.5V11.25H11.25V16.5ZM11.25 8.25H16.5V3H11.25V8.25ZM19.5 24.75H24.75V19.5H19.5V24.75ZM19.5 16.5H24.75V11.25H19.5V16.5ZM19.5 8.25H24.75V3H19.5V8.25ZM27.75 33H33V27.75H27.75V33ZM27.75 24.75H33V19.5H27.75V24.75Z"
										fill="#303441"
									/>
								</svg>